<svg width="54" height="54" viewBox="0 0 54 54" fill="none" xmlns="http://www.w3.org/2000/svg">
<rect width="54" height="54" rx="27" fill="black"/>
<path d="M27 0C12.0881 0 0 12.0881 0 27C0 41.9119 12.0881 54 27 54C41.9119 54 54 41.9119 54 27C54 12.0881 41.9119 0 27 0ZM33.3956 18.6581H29.3372C28.8563 18.6581 28.3219 19.2909 28.3219 20.1319V23.0625H33.3984L32.6306 27.2419H28.3219V39.7884H23.5322V27.2419H19.1869V23.0625H23.5322V20.6044C23.5322 17.0775 25.9791 14.2116 29.3372 14.2116H33.3956V18.6581V18.6581Z" fill="white"/>
</svg>
