<svg width="151" height="74" viewBox="0 0 151 74" fill="none" xmlns="http://www.w3.org/2000/svg">
<g filter="url(#filter0_d)">
<path d="M21.6484 36.3789H10.3984V48H4.53906V19.5625H23.0547V24.3086H10.3984V31.6523H21.6484V36.3789ZM51.8125 34.4258C51.8125 37.2253 51.3177 39.6797 50.3281 41.7891C49.3385 43.8984 47.9193 45.526 46.0703 46.6719C44.2344 47.8177 42.125 48.3906 39.7422 48.3906C37.3854 48.3906 35.2826 47.8242 33.4336 46.6914C31.5846 45.5586 30.1523 43.944 29.1367 41.8477C28.1211 39.7383 27.6068 37.3164 27.5938 34.582V33.1758C27.5938 30.3763 28.0951 27.9154 29.0977 25.793C30.1133 23.6576 31.5391 22.0234 33.375 20.8906C35.224 19.7448 37.3333 19.1719 39.7031 19.1719C42.0729 19.1719 44.1758 19.7448 46.0117 20.8906C47.8607 22.0234 49.2865 23.6576 50.2891 25.793C51.3047 27.9154 51.8125 30.3698 51.8125 33.1562V34.4258ZM45.875 33.1367C45.875 30.1549 45.3411 27.8893 44.2734 26.3398C43.2057 24.7904 41.6823 24.0156 39.7031 24.0156C37.737 24.0156 36.2201 24.7839 35.1523 26.3203C34.0846 27.8438 33.5443 30.0833 33.5312 33.0391V34.4258C33.5312 37.3294 34.0651 39.582 35.1328 41.1836C36.2005 42.7852 37.737 43.5859 39.7422 43.5859C41.7083 43.5859 43.2188 42.8177 44.2734 41.2812C45.3281 39.7318 45.862 37.4792 45.875 34.5234V33.1367ZM81.4297 34.4258C81.4297 37.2253 80.9349 39.6797 79.9453 41.7891C78.9557 43.8984 77.5365 45.526 75.6875 46.6719C73.8516 47.8177 71.7422 48.3906 69.3594 48.3906C67.0026 48.3906 64.8997 47.8242 63.0508 46.6914C61.2018 45.5586 59.7695 43.944 58.7539 41.8477C57.7383 39.7383 57.224 37.3164 57.2109 34.582V33.1758C57.2109 30.3763 57.7122 27.9154 58.7148 25.793C59.7305 23.6576 61.1562 22.0234 62.9922 20.8906C64.8411 19.7448 66.9505 19.1719 69.3203 19.1719C71.6901 19.1719 73.793 19.7448 75.6289 20.8906C77.4779 22.0234 78.9036 23.6576 79.9062 25.793C80.9219 27.9154 81.4297 30.3698 81.4297 33.1562V34.4258ZM75.4922 33.1367C75.4922 30.1549 74.9583 27.8893 73.8906 26.3398C72.8229 24.7904 71.2995 24.0156 69.3203 24.0156C67.3542 24.0156 65.8372 24.7839 64.7695 26.3203C63.7018 27.8438 63.1615 30.0833 63.1484 33.0391V34.4258C63.1484 37.3294 63.6823 39.582 64.75 41.1836C65.8177 42.7852 67.3542 43.5859 69.3594 43.5859C71.3255 43.5859 72.8359 42.8177 73.8906 41.2812C74.9453 39.7318 75.4792 37.4792 75.4922 34.5234V33.1367ZM87.6875 48V19.5625H96.4375C98.9375 19.5625 101.171 20.1289 103.137 21.2617C105.116 22.3815 106.659 23.9831 107.766 26.0664C108.872 28.1367 109.426 30.4935 109.426 33.1367V34.4453C109.426 37.0885 108.879 39.4388 107.785 41.4961C106.704 43.5534 105.174 45.1484 103.195 46.2812C101.216 47.4141 98.9831 47.987 96.4961 48H87.6875ZM93.5469 24.3086V43.293H96.3789C98.6706 43.293 100.422 42.5443 101.633 41.0469C102.844 39.5495 103.462 37.4076 103.488 34.6211V33.1172C103.488 30.2266 102.889 28.0391 101.691 26.5547C100.493 25.0573 98.7422 24.3086 96.4375 24.3086H93.5469ZM144.773 35.6758H133.523V43.293H146.727V48H127.664V19.5625H146.688V24.3086H133.523V31.0859H144.773V35.6758Z" fill="white"/>
<g filter="url(#filter1_i)">
<path d="M119.741 58.4126C118.553 49.2766 117.94 48.1816 117.984 43.3059C118.017 39.5828 118.04 37.042 118.09 31.6056C118.121 28.08 123.818 26.481 123.903 17.312C123.961 10.7981 120.638 2.88518 116.464 1.92272C112.287 0.961768 108.835 7.32093 108.776 13.8339C108.695 23.0027 114.341 27.2103 114.308 30.7372C114.26 36.1737 114.237 38.7143 114.202 42.4371C114.158 47.3128 113.527 48.1223 112.18 56.6733C111.51 60.9028 111.65 64.3225 115.892 65.2982C120.13 66.2733 120.331 62.9321 119.741 58.4126ZM116.758 25.8059C115.469 25.5105 114.276 24.599 113.272 23.2856C113.2 23.1412 113.127 23.0028 113.053 22.8563C117.317 22.4734 120.712 17.7837 121.61 11.0447C122.263 13.1117 122.59 15.2119 122.577 17.2507C122.543 20.9726 121.644 23.3911 120.291 24.8839C119.383 25.884 118.052 26.1037 116.758 25.8059Z" fill="#FFA47B"/>
</g>
</g>
<defs>
<filter id="filter0_d" x="0.539062" y="1.82593" width="150.188" height="71.6423" filterUnits="userSpaceOnUse" color-interpolation-filters="sRGB">
<feFlood flood-opacity="0" result="BackgroundImageFix"/>
<feColorMatrix in="SourceAlpha" type="matrix" values="0 0 0 0 0 0 0 0 0 0 0 0 0 0 0 0 0 0 127 0"/>
<feOffset dy="4"/>
<feGaussianBlur stdDeviation="2"/>
<feColorMatrix type="matrix" values="0 0 0 0 0 0 0 0 0 0 0 0 0 0 0 0 0 0 0.25 0"/>
<feBlend mode="normal" in2="BackgroundImageFix" result="effect1_dropShadow"/>
<feBlend mode="normal" in="SourceGraphic" in2="effect1_dropShadow" result="shape"/>
</filter>
<filter id="filter1_i" x="108.775" y="1.82593" width="15.1289" height="67.6423" filterUnits="userSpaceOnUse" color-interpolation-filters="sRGB">
<feFlood flood-opacity="0" result="BackgroundImageFix"/>
<feBlend mode="normal" in="SourceGraphic" in2="BackgroundImageFix" result="shape"/>
<feColorMatrix in="SourceAlpha" type="matrix" values="0 0 0 0 0 0 0 0 0 0 0 0 0 0 0 0 0 0 127 0" result="hardAlpha"/>
<feOffset dy="4"/>
<feGaussianBlur stdDeviation="2"/>
<feComposite in2="hardAlpha" operator="arithmetic" k2="-1" k3="1"/>
<feColorMatrix type="matrix" values="0 0 0 0 0 0 0 0 0 0 0 0 0 0 0 0 0 0 0.25 0"/>
<feBlend mode="normal" in2="shape" result="effect1_innerShadow"/>
</filter>
</defs>
</svg>
