<svg width="55" height="55" viewBox="0 0 55 55" fill="none" xmlns="http://www.w3.org/2000/svg">
<rect x="0.934082" width="54.0659" height="54.0659" rx="27.033" fill="white"/>
<path d="M27.9634 22.3109C25.3633 22.3109 23.2414 24.4328 23.2414 27.0329C23.2414 29.6331 25.3633 31.755 27.9634 31.755C30.5635 31.755 32.6854 29.6331 32.6854 27.0329C32.6854 24.4328 30.5635 22.3109 27.9634 22.3109ZM42.1257 27.0329C42.1257 25.0775 42.1435 23.1398 42.0336 21.1879C41.9238 18.9208 41.4066 16.9087 39.7488 15.2508C38.0875 13.5894 36.0789 13.0758 33.8118 12.966C31.8564 12.8561 29.9188 12.8739 27.9669 12.8739C26.0115 12.8739 24.0739 12.8561 22.122 12.966C19.8549 13.0758 17.8429 13.593 16.185 15.2508C14.5237 16.9122 14.01 18.9208 13.9002 21.1879C13.7904 23.1433 13.8081 25.0811 13.8081 27.0329C13.8081 28.9848 13.7904 30.9261 13.9002 32.8779C14.01 35.1451 14.5272 37.1572 16.185 38.815C17.8464 40.4764 19.8549 40.9901 22.122 41.0999C24.0774 41.2097 26.0151 41.192 27.9669 41.192C29.9223 41.192 31.86 41.2097 33.8118 41.0999C36.0789 40.9901 38.091 40.4729 39.7488 38.815C41.4102 37.1536 41.9238 35.1451 42.0336 32.8779C42.147 30.9261 42.1257 28.9883 42.1257 27.0329V27.0329ZM27.9634 34.2984C23.9428 34.2984 20.698 31.0536 20.698 27.0329C20.698 23.0123 23.9428 19.7674 27.9634 19.7674C31.984 19.7674 35.2288 23.0123 35.2288 27.0329C35.2288 31.0536 31.984 34.2984 27.9634 34.2984ZM35.5263 21.1667C34.5876 21.1667 33.8295 20.4086 33.8295 19.4699C33.8295 18.5311 34.5876 17.773 35.5263 17.773C36.4651 17.773 37.2231 18.5311 37.2231 19.4699C37.2234 19.6928 37.1797 19.9135 37.0945 20.1195C37.0094 20.3255 36.8844 20.5127 36.7268 20.6703C36.5691 20.8279 36.382 20.9529 36.176 21.0381C35.97 21.1233 35.7492 21.167 35.5263 21.1667V21.1667Z" fill="black"/>
</svg>
