<svg width="54" height="54" viewBox="0 0 54 54" fill="none" xmlns="http://www.w3.org/2000/svg">
<rect width="54" height="54" rx="27" fill="black"/>
<path d="M27 0C12.0881 0 0 12.0881 0 27C0 41.9119 12.0881 54 27 54C41.9119 54 54 41.9119 54 27C54 12.0881 41.9119 0 27 0ZM37.9828 22.1175C37.9941 22.3481 37.9969 22.5788 37.9969 22.8038C37.9969 29.835 32.6503 37.9378 22.8684 37.9378C19.978 37.9426 17.1477 37.1125 14.7178 35.5472C15.1312 35.5978 15.5559 35.6175 15.9863 35.6175C18.4781 35.6175 20.7703 34.7709 22.59 33.3422C21.4811 33.3204 20.4066 32.9532 19.5163 32.2918C18.6259 31.6303 17.9641 30.7076 17.6231 29.6522C18.4195 29.8036 19.2399 29.7719 20.0222 29.5594C18.8186 29.316 17.7362 28.6638 16.9586 27.7134C16.1809 26.7631 15.7559 25.573 15.7556 24.345V24.2803C16.4728 24.6769 17.2941 24.9188 18.1659 24.9469C17.0376 24.1957 16.2388 23.0419 15.9329 21.7213C15.6271 20.4007 15.8373 19.0132 16.5206 17.8425C17.8564 19.485 19.5223 20.8287 21.4103 21.7865C23.2984 22.7443 25.3666 23.295 27.4809 23.4028C27.2121 22.2618 27.3278 21.064 27.81 19.9955C28.2922 18.927 29.1139 18.0478 30.1474 17.4945C31.1808 16.9412 32.3681 16.7448 33.5247 16.936C34.6813 17.1271 35.7423 17.6949 36.5428 18.5512C37.733 18.3158 38.8743 17.8792 39.9178 17.2603C39.5211 18.4926 38.6906 19.5389 37.5806 20.205C38.6349 20.078 39.6643 19.7946 40.635 19.3641C39.922 20.4325 39.0238 21.365 37.9828 22.1175V22.1175Z" fill="white"/>
</svg>
